<svg xmlns="http://www.w3.org/2000/svg" viewBox="0 0 1024 1024" width="1024" height="1024">
<path d="M 474,336 L 473,337 L 468,337 L 467,338 L 465,338 L 464,339 L 462,339 L 461,340 L 460,340 L 459,341 L 458,341 L 456,343 L 455,343 L 451,347 L 450,347 L 449,348 L 449,349 L 446,352 L 446,353 L 444,355 L 444,356 L 443,357 L 443,358 L 442,359 L 442,361 L 441,362 L 441,364 L 440,365 L 440,370 L 439,371 L 439,551 L 440,552 L 440,559 L 441,560 L 441,563 L 442,564 L 442,566 L 443,567 L 443,568 L 444,569 L 444,570 L 445,571 L 445,572 L 447,574 L 447,575 L 453,581 L 454,581 L 457,584 L 458,584 L 459,585 L 460,585 L 461,586 L 463,586 L 464,587 L 466,587 L 467,588 L 470,588 L 471,589 L 479,589 L 480,590 L 485,590 L 486,589 L 529,589 L 530,590 L 532,590 L 536,594 L 536,613 L 537,614 L 537,638 L 538,639 L 538,647 L 539,648 L 539,650 L 540,651 L 540,652 L 542,654 L 542,655 L 543,655 L 544,656 L 545,656 L 546,657 L 549,657 L 550,658 L 553,658 L 554,657 L 557,657 L 559,655 L 560,655 L 564,651 L 565,651 L 572,644 L 573,644 L 582,635 L 583,635 L 594,624 L 595,624 L 606,613 L 607,613 L 618,602 L 619,602 L 626,595 L 627,595 L 629,593 L 630,593 L 632,591 L 634,591 L 635,590 L 638,590 L 639,589 L 699,589 L 700,588 L 854,588 L 855,587 L 858,587 L 859,586 L 861,586 L 862,585 L 864,585 L 865,584 L 867,584 L 868,583 L 869,583 L 871,581 L 872,581 L 877,576 L 878,576 L 879,575 L 879,574 L 882,571 L 882,570 L 884,568 L 884,567 L 885,566 L 885,565 L 886,564 L 886,563 L 887,562 L 887,560 L 888,559 L 888,556 L 889,555 L 889,370 L 888,369 L 888,363 L 887,362 L 887,360 L 886,359 L 886,357 L 885,356 L 885,355 L 884,354 L 884,353 L 882,351 L 882,350 L 875,343 L 874,343 L 872,341 L 871,341 L 870,340 L 869,340 L 868,339 L 867,339 L 866,338 L 864,338 L 863,337 L 860,337 L 859,336 Z" fill="orange"/>
<path d="M 594,145 L 593,146 L 592,146 L 591,147 L 589,147 L 588,148 L 586,148 L 585,149 L 583,149 L 582,150 L 580,150 L 579,151 L 577,151 L 576,152 L 574,152 L 573,153 L 571,153 L 570,154 L 568,154 L 567,155 L 565,155 L 564,156 L 562,156 L 561,157 L 558,157 L 557,158 L 555,158 L 554,159 L 553,159 L 552,160 L 550,160 L 549,161 L 547,161 L 546,162 L 545,162 L 544,163 L 542,163 L 541,164 L 540,164 L 539,165 L 537,165 L 536,166 L 534,166 L 533,167 L 531,167 L 530,168 L 528,168 L 527,169 L 526,169 L 525,170 L 523,170 L 522,171 L 520,171 L 519,172 L 517,172 L 516,173 L 515,173 L 514,174 L 512,174 L 511,175 L 509,175 L 508,176 L 506,176 L 505,177 L 504,177 L 503,178 L 501,178 L 500,179 L 498,179 L 497,180 L 495,180 L 494,181 L 492,181 L 491,182 L 489,182 L 488,183 L 486,183 L 485,184 L 482,184 L 481,185 L 480,185 L 479,186 L 476,186 L 475,187 L 473,187 L 472,188 L 470,188 L 469,189 L 467,189 L 466,190 L 465,190 L 464,191 L 462,191 L 461,192 L 459,192 L 458,193 L 456,193 L 455,194 L 454,194 L 453,195 L 450,195 L 449,196 L 448,196 L 447,197 L 445,197 L 444,198 L 442,198 L 441,199 L 439,199 L 438,200 L 436,200 L 435,201 L 433,201 L 432,202 L 431,202 L 430,203 L 428,203 L 427,204 L 425,204 L 424,205 L 423,205 L 422,206 L 420,206 L 419,207 L 417,207 L 416,208 L 415,208 L 414,209 L 412,209 L 411,210 L 409,210 L 408,211 L 406,211 L 405,212 L 403,212 L 402,213 L 400,213 L 399,214 L 397,214 L 396,215 L 394,215 L 393,216 L 390,216 L 389,217 L 387,217 L 386,218 L 384,218 L 383,219 L 381,219 L 380,220 L 378,220 L 377,221 L 375,221 L 374,222 L 371,222 L 370,223 L 369,223 L 368,224 L 366,224 L 365,225 L 364,225 L 363,226 L 361,226 L 360,227 L 359,227 L 358,228 L 356,228 L 355,229 L 353,229 L 352,230 L 350,230 L 349,231 L 347,231 L 346,232 L 344,232 L 343,233 L 341,233 L 340,234 L 339,234 L 338,235 L 336,235 L 335,236 L 333,236 L 332,237 L 330,237 L 329,238 L 327,238 L 326,239 L 324,239 L 323,240 L 320,240 L 319,241 L 317,241 L 316,242 L 314,242 L 313,243 L 311,243 L 310,244 L 308,244 L 307,245 L 305,245 L 304,246 L 302,246 L 301,247 L 299,247 L 298,248 L 296,248 L 295,249 L 294,249 L 293,250 L 291,250 L 290,251 L 288,251 L 287,252 L 285,252 L 284,253 L 282,253 L 281,254 L 280,254 L 279,255 L 277,255 L 276,256 L 274,256 L 273,257 L 272,257 L 271,258 L 269,258 L 268,259 L 266,259 L 265,260 L 264,260 L 263,261 L 261,261 L 260,262 L 258,262 L 257,263 L 255,263 L 254,264 L 252,264 L 251,265 L 249,265 L 248,266 L 246,266 L 245,267 L 243,267 L 242,268 L 240,268 L 239,269 L 236,269 L 235,270 L 233,270 L 232,271 L 230,271 L 229,272 L 228,272 L 227,273 L 225,273 L 224,274 L 222,274 L 221,275 L 219,275 L 218,276 L 216,276 L 215,277 L 214,277 L 213,278 L 211,278 L 210,279 L 208,279 L 207,280 L 206,280 L 205,281 L 203,281 L 202,282 L 200,282 L 199,283 L 197,283 L 196,284 L 195,284 L 194,285 L 192,285 L 191,286 L 189,286 L 188,287 L 186,287 L 185,288 L 183,288 L 182,289 L 180,289 L 179,290 L 177,290 L 176,291 L 175,291 L 174,292 L 172,292 L 171,293 L 170,293 L 169,294 L 167,294 L 166,295 L 165,295 L 164,296 L 163,296 L 162,297 L 161,297 L 160,298 L 159,298 L 158,299 L 157,299 L 154,302 L 154,303 L 153,304 L 153,305 L 152,306 L 152,309 L 151,310 L 151,319 L 152,320 L 152,321 L 153,322 L 153,323 L 154,324 L 154,325 L 155,326 L 155,328 L 156,329 L 156,331 L 157,332 L 157,333 L 158,334 L 158,337 L 159,338 L 159,339 L 160,340 L 160,342 L 161,343 L 161,346 L 162,347 L 162,349 L 163,350 L 163,352 L 164,353 L 164,355 L 165,356 L 165,359 L 166,360 L 166,362 L 167,363 L 167,365 L 168,366 L 168,369 L 169,370 L 169,372 L 170,373 L 170,375 L 171,376 L 171,378 L 172,379 L 172,380 L 173,381 L 173,383 L 174,384 L 174,385 L 175,386 L 175,387 L 176,388 L 176,819 L 177,820 L 177,825 L 178,826 L 178,829 L 179,830 L 179,832 L 180,833 L 180,835 L 181,836 L 181,837 L 182,838 L 182,839 L 184,841 L 184,842 L 185,843 L 185,844 L 188,847 L 188,848 L 194,854 L 195,854 L 198,857 L 199,857 L 201,859 L 202,859 L 203,860 L 204,860 L 205,861 L 206,861 L 207,862 L 208,862 L 209,863 L 210,863 L 211,864 L 212,864 L 213,865 L 215,865 L 216,866 L 218,866 L 219,867 L 224,867 L 225,868 L 541,868 L 542,869 L 543,868 L 653,868 L 654,867 L 658,867 L 659,866 L 662,866 L 663,865 L 664,865 L 665,864 L 667,864 L 668,863 L 669,863 L 670,862 L 671,862 L 672,861 L 673,861 L 674,860 L 675,860 L 678,857 L 679,857 L 682,854 L 683,854 L 689,848 L 689,847 L 693,843 L 693,842 L 694,841 L 694,840 L 696,838 L 696,837 L 697,836 L 697,835 L 698,834 L 698,833 L 699,832 L 699,830 L 700,829 L 700,827 L 701,826 L 701,822 L 702,821 L 702,640 L 701,639 L 701,638 L 702,637 L 701,636 L 702,635 L 702,634 L 701,633 L 701,617 L 700,617 L 699,616 L 694,616 L 693,617 L 643,617 L 642,618 L 641,618 L 632,627 L 631,627 L 622,636 L 621,636 L 611,646 L 610,646 L 602,654 L 601,654 L 593,662 L 592,662 L 583,671 L 582,671 L 578,675 L 577,675 L 574,678 L 573,678 L 572,679 L 571,679 L 570,680 L 569,680 L 568,681 L 566,681 L 565,682 L 563,682 L 562,683 L 558,683 L 557,684 L 550,684 L 549,683 L 544,683 L 543,682 L 539,682 L 538,681 L 537,681 L 536,680 L 534,680 L 533,679 L 532,679 L 530,677 L 529,677 L 527,675 L 526,675 L 520,669 L 520,668 L 517,665 L 517,664 L 516,663 L 516,662 L 515,661 L 515,659 L 514,658 L 514,657 L 513,656 L 513,653 L 512,652 L 512,648 L 511,647 L 511,640 L 510,639 L 510,617 L 478,617 L 477,616 L 468,616 L 467,615 L 464,615 L 463,614 L 460,614 L 459,613 L 457,613 L 456,612 L 454,612 L 453,611 L 452,611 L 451,610 L 450,610 L 449,609 L 448,609 L 446,607 L 445,607 L 444,606 L 443,606 L 441,604 L 440,604 L 436,600 L 435,600 L 425,590 L 425,589 L 423,587 L 423,586 L 421,584 L 421,583 L 420,582 L 420,581 L 419,580 L 419,579 L 418,578 L 418,576 L 417,575 L 417,573 L 416,572 L 416,569 L 415,568 L 415,565 L 414,564 L 414,560 L 413,559 L 413,552 L 412,551 L 412,500 L 411,499 L 411,479 L 376,479 L 373,476 L 373,475 L 372,474 L 372,473 L 371,472 L 371,471 L 370,470 L 370,469 L 369,468 L 369,466 L 367,464 L 367,463 L 366,462 L 366,461 L 365,460 L 365,459 L 364,458 L 364,457 L 362,455 L 362,454 L 361,453 L 361,452 L 360,451 L 360,450 L 358,448 L 358,446 L 356,444 L 356,443 L 355,442 L 355,441 L 354,440 L 354,439 L 353,438 L 353,437 L 352,436 L 352,435 L 351,434 L 351,433 L 350,432 L 350,431 L 348,429 L 348,428 L 347,427 L 347,426 L 346,425 L 346,424 L 344,422 L 344,421 L 343,420 L 343,419 L 341,417 L 341,416 L 339,414 L 339,413 L 338,412 L 338,411 L 337,410 L 337,409 L 336,408 L 336,407 L 335,406 L 335,405 L 334,404 L 335,403 L 374,403 L 375,404 L 406,404 L 407,405 L 411,405 L 411,404 L 412,403 L 412,399 L 411,398 L 412,397 L 411,396 L 411,389 L 410,388 L 309,388 L 308,387 L 307,387 L 306,388 L 305,388 L 304,387 L 277,387 L 276,388 L 224,388 L 223,387 L 219,387 L 218,386 L 219,385 L 223,385 L 224,384 L 226,384 L 227,383 L 229,383 L 230,382 L 232,382 L 233,381 L 234,381 L 235,380 L 238,380 L 239,379 L 241,379 L 242,378 L 245,378 L 246,377 L 248,377 L 249,376 L 251,376 L 252,375 L 254,375 L 255,374 L 257,374 L 258,373 L 260,373 L 261,372 L 262,372 L 263,371 L 264,371 L 265,370 L 267,370 L 268,369 L 270,369 L 271,368 L 273,368 L 274,367 L 275,367 L 276,366 L 278,366 L 279,365 L 282,365 L 283,364 L 284,364 L 285,363 L 287,363 L 288,362 L 290,362 L 291,361 L 294,361 L 295,360 L 296,360 L 297,359 L 300,359 L 301,358 L 302,358 L 303,357 L 305,357 L 306,356 L 308,356 L 309,355 L 312,355 L 313,354 L 315,354 L 316,353 L 318,353 L 319,352 L 322,352 L 323,351 L 325,351 L 326,350 L 328,350 L 329,349 L 330,349 L 331,348 L 333,348 L 334,347 L 335,347 L 336,346 L 338,346 L 339,345 L 340,345 L 341,344 L 343,344 L 344,343 L 345,343 L 346,342 L 348,342 L 349,341 L 351,341 L 352,340 L 354,340 L 355,339 L 357,339 L 358,338 L 360,338 L 361,337 L 363,337 L 364,336 L 365,336 L 366,335 L 369,335 L 370,334 L 372,334 L 373,333 L 375,333 L 376,332 L 378,332 L 379,331 L 381,331 L 382,330 L 384,330 L 385,329 L 387,329 L 388,328 L 390,328 L 391,327 L 393,327 L 394,326 L 396,326 L 397,325 L 398,325 L 399,324 L 401,324 L 402,323 L 404,323 L 405,322 L 407,322 L 408,321 L 410,321 L 411,320 L 413,320 L 414,319 L 415,319 L 416,318 L 418,318 L 419,317 L 420,317 L 421,316 L 423,316 L 424,315 L 426,315 L 427,314 L 428,314 L 429,313 L 431,313 L 432,312 L 434,312 L 435,311 L 436,311 L 437,310 L 439,310 L 440,309 L 441,309 L 442,308 L 444,308 L 445,307 L 447,307 L 448,306 L 450,306 L 451,305 L 453,305 L 454,304 L 455,304 L 456,303 L 458,303 L 459,302 L 460,302 L 461,301 L 463,301 L 464,300 L 466,300 L 467,299 L 469,299 L 470,298 L 473,298 L 474,297 L 475,297 L 476,296 L 478,296 L 479,295 L 481,295 L 482,294 L 484,294 L 485,293 L 487,293 L 488,292 L 490,292 L 491,291 L 493,291 L 494,290 L 496,290 L 497,289 L 499,289 L 500,288 L 502,288 L 503,287 L 504,287 L 505,286 L 507,286 L 508,285 L 509,285 L 510,284 L 511,284 L 512,283 L 514,283 L 515,282 L 516,282 L 517,281 L 519,281 L 520,280 L 522,280 L 523,279 L 525,279 L 526,278 L 528,278 L 529,277 L 530,277 L 531,276 L 533,276 L 534,275 L 536,275 L 537,274 L 539,274 L 540,273 L 541,273 L 542,272 L 544,272 L 545,271 L 547,271 L 548,270 L 550,270 L 551,269 L 553,269 L 554,268 L 556,268 L 557,267 L 559,267 L 560,266 L 562,266 L 563,265 L 565,265 L 566,264 L 567,264 L 568,263 L 570,263 L 571,262 L 572,262 L 573,261 L 575,261 L 576,260 L 578,260 L 579,259 L 581,259 L 582,258 L 584,258 L 585,257 L 587,257 L 588,256 L 590,256 L 591,255 L 593,255 L 594,254 L 596,254 L 597,253 L 599,253 L 600,252 L 602,252 L 603,251 L 605,251 L 606,250 L 608,250 L 609,249 L 611,249 L 612,248 L 614,248 L 615,247 L 617,247 L 618,246 L 619,246 L 620,245 L 622,245 L 623,244 L 624,244 L 625,243 L 627,243 L 629,241 L 630,241 L 636,235 L 636,234 L 637,233 L 637,231 L 638,230 L 638,228 L 639,227 L 639,218 L 638,217 L 638,213 L 637,212 L 637,209 L 636,208 L 636,206 L 635,205 L 635,203 L 634,202 L 634,200 L 633,199 L 633,197 L 632,196 L 632,194 L 631,193 L 631,191 L 630,190 L 630,188 L 629,187 L 629,185 L 628,184 L 628,183 L 627,182 L 627,179 L 626,178 L 626,176 L 625,175 L 625,173 L 624,172 L 624,170 L 623,169 L 623,167 L 622,166 L 622,164 L 621,163 L 621,161 L 620,160 L 620,159 L 619,158 L 619,157 L 618,156 L 618,155 L 611,148 L 610,148 L 608,146 L 606,146 L 605,145 Z" fill="orange"/>

</svg>